<svg width="201" height="254" viewBox="0 0 201 254" fill="none" xmlns="http://www.w3.org/2000/svg">
<path d="M101.283 204C66.7827 203.655 51.2827 176 51.2827 155L51.2808 155.002C39.2822 167 34.7814 171.501 9.99989 196.5C24.2445 228.862 55.5309 254 100.783 254C146.035 254 177.829 228.862 192.365 196.5C171.783 176 170.783 175 150.783 155L150.783 155C150.783 174.5 135.783 204.345 101.283 204Z" fill="url(#paint0_radial_19_178)"/>
<path d="M101 5.50482C101 5.50482 142.5 2.00515 173 34.0048C203.5 66.0046 200.5 105.005 200.5 105.005L150.5 155.005C150.395 155.005 120.297 155.006 101 155.005V105.118H151C151 84.5049 137 55.0048 101 55.0048C64.9995 55.0049 50.4995 87.005 50.4995 105.118C50.4996 122.946 64.0625 152.069 99.2915 154.997C85.1675 154.895 68.6804 153.221 48.4995 134.005C27.4996 114.009 25.4993 100.504 25.4995 79.2158C25.4998 57.9281 33.4998 42.5005 50.4995 24.5048C67.4715 6.53861 100.89 5.50816 101 5.50482Z" fill="url(#paint1_radial_19_178)"/>
<path d="M101 204V155C55 155 25.5 115.5 25.5 80.0003C25.5 44.5 54.5 6.00029 101 6.00029C60.7323 6.00029 42.5 21 36 27C29.5 33 0.5 54 0.5 105C0.5 156 25.5 204 101 204Z" fill="#BAEA95"/>
<defs>
<radialGradient id="paint0_radial_19_178" cx="0" cy="0" r="1" gradientUnits="userSpaceOnUse" gradientTransform="translate(30.7827 155) scale(170.5 344.444)">
<stop stop-color="#3FA734"/>
<stop offset="1" stop-color="#DFF3CD"/>
</radialGradient>
<radialGradient id="paint1_radial_19_178" cx="0" cy="0" r="1" gradientUnits="userSpaceOnUse" gradientTransform="translate(25.0377 63.0051) rotate(33.4301) scale(166.994 194.707)">
<stop stop-color="#3C9935"/>
<stop offset="0.231472" stop-color="#58AD4E"/>
<stop offset="0.869981" stop-color="#DFF3CD"/>
</radialGradient>
</defs>
</svg>
